<?xml version="1.0" standalone="no"?>
<!DOCTYPE svg PUBLIC "-//W3C//DTD SVG 20010904//EN"
 "http://www.w3.org/TR/2001/REC-SVG-20010904/DTD/svg10.dtd">
<svg version="1.0" xmlns="http://www.w3.org/2000/svg"
 width="512.000000pt" height="512.000000pt" viewBox="0 0 512.000000 512.000000"
 preserveAspectRatio="xMidYMid meet">

<g transform="translate(0.000000,512.000000) scale(0.100000,-0.100000)"
fill="currentColor" stroke="currentColor">
<path d="M1695 4730 c-130 -26 -240 -86 -341 -186 -60 -59 -81 -89 -121 -172
l-48 -101 -450 -3 -450 -3 -3 -197 -2 -198 453 0 454 0 22 -59 c66 -183 249
-344 451 -398 88 -23 253 -23 340 1 176 48 340 178 416 331 22 44 43 90 46
103 l6 22 1186 0 1186 0 -2 198 -3 197 -1183 5 -1183 5 -28 66 c-104 245 -344
401 -615 398 -50 -1 -109 -5 -131 -9z m262 -406 c122 -58 182 -210 138 -345
-26 -77 -103 -152 -180 -175 -190 -55 -365 75 -365 271 1 215 210 343 407 249z"/>
<path d="M3175 3196 c-149 -30 -253 -84 -356 -186 -56 -56 -86 -96 -115 -155
-22 -44 -43 -90 -46 -103 l-6 -22 -1186 0 -1186 0 0 -170 0 -170 1186 0 1186
0 6 -22 c3 -13 24 -59 46 -103 78 -156 242 -284 426 -332 86 -22 243 -22 330
1 202 54 384 214 452 399 l21 57 453 0 454 0 0 170 0 170 -454 0 -453 0 -21
58 c-68 183 -252 346 -447 396 -90 23 -209 28 -290 12z m240 -381 c22 -11 58
-38 81 -60 100 -100 100 -286 1 -388 -64 -65 -107 -82 -207 -82 -98 0 -141 18
-201 82 -61 64 -74 97 -74 193 0 68 5 93 22 125 29 53 88 109 143 135 58 27
175 24 235 -5z"/>
<path d="M1705 1716 c-38 -8 -90 -21 -114 -30 -163 -59 -325 -219 -382 -377
l-22 -59 -454 0 -453 0 2 -197 3 -198 450 -3 450 -3 48 -101 c78 -161 206
-275 379 -335 107 -37 264 -43 376 -15 211 54 372 189 453 381 l28 66 1183 5
1183 5 3 198 2 197 -1186 0 -1186 0 -6 22 c-3 13 -24 59 -46 103 -124 248
-432 396 -711 341z m215 -402 c72 -21 150 -98 175 -173 62 -187 -70 -374 -263
-374 -165 0 -281 115 -282 278 0 199 176 327 370 269z"/>
</g>
</svg>
