<?xml version="1.0" standalone="no"?>
<!DOCTYPE svg PUBLIC "-//W3C//DTD SVG 20010904//EN"
 "http://www.w3.org/TR/2001/REC-SVG-20010904/DTD/svg10.dtd">
<svg version="1.0" xmlns="http://www.w3.org/2000/svg"
 width="512.000000pt" height="512.000000pt" viewBox="0 0 512.000000 512.000000"
 preserveAspectRatio="xMidYMid meet">

<g transform="translate(0.000000,512.000000) scale(0.100000,-0.100000)"
fill="currentColor" stroke="none">
<path d="M32 4507 c-22 -23 -22 -24 -22 -493 0 -459 0 -471 20 -492 26 -28 79
-29 111 -3 l24 19 3 421 3 421 412 0 c448 0 447 0 461 55 7 29 -15 79 -39 89
-9 3 -227 6 -484 6 l-468 0 -21 -23z"/>
<path d="M4112 4523 c-21 -8 -43 -61 -36 -88 14 -55 13 -55 461 -55 l412 0 3
-421 3 -421 24 -19 c32 -26 82 -25 109 4 22 23 22 24 22 493 l0 471 -23 21
c-23 22 -24 22 -493 21 -258 0 -475 -3 -482 -6z"/>
<path d="M539 3991 l-24 -19 0 -614 0 -613 78 -3 77 -3 0 614 0 614 -23 21
c-29 27 -77 28 -108 3z"/>
<path d="M925 3998 c-53 -19 -87 -50 -111 -102 l-24 -51 0 -552 0 -553 200 0
200 0 0 546 c0 403 -3 557 -12 588 -30 100 -152 160 -253 124z"/>
<path d="M1372 3987 l-22 -23 0 -613 0 -612 78 3 77 3 3 590 c1 325 0 600 -3
613 -15 61 -92 83 -133 39z"/>
<path d="M1750 3994 c-45 -20 -77 -50 -101 -96 -18 -35 -19 -66 -19 -598 l0
-560 195 0 195 0 0 560 c0 532 -1 563 -19 598 -49 95 -157 137 -251 96z"/>
<path d="M2209 3991 l-24 -19 0 -614 0 -613 78 -3 77 -3 0 609 c0 601 0 610
-21 636 -25 32 -75 35 -110 7z"/>
<path d="M2592 3999 c-45 -13 -105 -76 -120 -125 -9 -31 -12 -185 -12 -588 l0
-546 198 2 197 3 0 560 0 560 -24 42 c-49 85 -140 120 -239 92z"/>
<path d="M3042 3987 l-22 -23 0 -613 0 -612 78 3 77 3 3 580 c1 319 0 595 -3
613 -13 69 -88 97 -133 49z"/>
<path d="M3415 3991 c-47 -22 -89 -64 -104 -104 -7 -19 -11 -217 -11 -588 l0
-559 195 0 195 0 0 560 c0 532 -1 563 -19 598 -50 98 -160 138 -256 93z"/>
<path d="M3879 3991 l-24 -19 0 -614 0 -613 78 -3 77 -3 0 609 c0 601 0 610
-21 636 -25 32 -75 35 -110 7z"/>
<path d="M4262 3999 c-44 -13 -108 -79 -121 -126 -7 -25 -11 -231 -11 -586 l0
-547 198 2 197 3 0 560 0 560 -27 47 c-46 78 -143 114 -236 87z"/>
<path d="M35 2615 c-16 -15 -25 -36 -25 -55 0 -19 9 -40 25 -55 l24 -25 2501
0 2501 0 24 25 c33 32 33 78 0 110 l-24 25 -2501 0 -2501 0 -24 -25z"/>
<path d="M517 2373 c-4 -3 -7 -274 -7 -600 0 -628 1 -640 45 -657 34 -13 72
-6 93 17 l22 23 0 612 0 612 -73 0 c-41 0 -77 -3 -80 -7z"/>
<path d="M790 1827 l0 -553 26 -52 c30 -60 62 -86 128 -104 85 -23 183 21 222
99 18 36 19 72 22 601 l2 562 -200 0 -200 0 0 -553z"/>
<path d="M1350 1902 c0 -467 0 -479 20 -500 30 -32 82 -33 115 -1 19 19 20 33
20 497 l0 477 -77 3 -78 3 0 -479z"/>
<path d="M1630 1956 c0 -276 4 -435 11 -453 25 -68 109 -123 186 -123 59 0
114 30 157 83 l31 39 3 439 3 439 -196 0 -195 0 0 -424z"/>
<path d="M2184 2367 c-2 -7 -3 -223 -2 -480 3 -458 3 -467 24 -487 29 -29 78
-29 109 0 l25 23 0 479 0 478 -75 0 c-53 0 -77 -4 -81 -13z"/>
<path d="M2462 1946 l3 -434 30 -44 c86 -123 271 -113 339 17 20 39 21 53 21
465 l0 425 -198 3 -198 2 3 -434z"/>
<path d="M3020 1900 c0 -467 1 -481 20 -500 30 -30 83 -30 115 1 19 19 20 33
20 497 l0 477 -77 3 -78 3 0 -481z"/>
<path d="M3302 1941 c3 -493 -2 -457 81 -524 88 -72 232 -35 287 74 19 36 20
61 20 464 l0 425 -195 0 -196 0 3 -439z"/>
<path d="M3854 2367 c-2 -7 -3 -284 -2 -616 l3 -603 24 -19 c35 -28 85 -25
110 7 21 26 21 35 21 635 l0 609 -75 0 c-52 0 -77 -4 -81 -13z"/>
<path d="M4132 1813 l3 -568 24 -38 c32 -52 87 -86 149 -94 74 -8 151 30 190
95 l27 47 0 560 0 560 -198 3 -198 2 3 -567z"/>
<path d="M30 1598 c-20 -21 -20 -33 -20 -493 l0 -472 23 -21 c23 -22 25 -22
489 -22 257 0 474 3 483 6 24 10 46 60 39 89 -14 55 -13 55 -461 55 l-412 0
-3 421 -3 421 -24 19 c-32 26 -85 25 -111 -3z"/>
<path d="M4974 1599 c-18 -20 -19 -44 -22 -440 l-3 -419 -412 0 c-448 0 -447
0 -461 -55 -7 -29 15 -79 39 -89 9 -3 227 -6 484 -6 l468 0 21 23 c22 23 22
24 22 493 0 459 0 471 -20 492 -28 30 -90 30 -116 1z"/>
</g>
</svg>
