<?xml version="1.0" standalone="no"?>
<!DOCTYPE svg PUBLIC "-//W3C//DTD SVG 20010904//EN"
 "http://www.w3.org/TR/2001/REC-SVG-20010904/DTD/svg10.dtd">
<svg version="1.0" xmlns="http://www.w3.org/2000/svg"
 width="512.000000pt" height="512.000000pt" viewBox="0 0 512.000000 512.000000"
 preserveAspectRatio="xMidYMid meet">

<g transform="translate(0.000000,512.000000) scale(0.100000,-0.100000)"
fill="#000000" stroke="none">
<path d="M2355 5113 c-617 -54 -1184 -319 -1616 -755 -395 -400 -640 -902
-721 -1478 -17 -125 -17 -515 0 -640 81 -574 321 -1067 715 -1469 469 -478
1073 -745 1742 -768 588 -20 1153 160 1634 520 110 82 371 337 454 444 155
196 319 490 401 714 151 413 192 883 116 1322 -69 395 -235 777 -482 1104 -89
118 -282 320 -399 418 -465 388 -1058 600 -1658 593 -80 -1 -164 -3 -186 -5z
m2006 -1039 c29 -15 59 -65 59 -100 0 -31 -33 -85 -61 -99 -62 -33 -131 -9
-164 55 -19 37 -19 54 1 96 29 60 102 81 165 48z m-605 -816 c657 -381 1194
-695 1194 -698 0 -3 -538 -317 -1195 -698 l-1195 -693 -872 507 c-480 279
-1018 590 -1195 693 -177 102 -322 188 -322 191 0 3 145 89 322 191 177 103
714 414 1192 692 479 279 872 506 874 507 2 0 540 -312 1197 -692z m851 603
c12 -6 34 -26 48 -45 70 -91 17 -230 -98 -256 -100 -22 -197 56 -197 160 0 48
27 104 63 130 50 36 129 41 184 11z"/>
<path d="M2505 3533 c-82 -6 -182 -26 -250 -50 -83 -30 -208 -93 -250 -127
l-30 -24 35 -6 c19 -3 82 -12 140 -21 562 -87 1048 -337 1360 -700 l43 -50 -7
75 c-37 424 -330 773 -736 874 -93 23 -224 36 -305 29z"/>
<path d="M1718 3039 c-40 -69 -77 -162 -100 -257 -18 -69 -22 -116 -22 -227 0
-169 22 -271 89 -413 59 -124 115 -201 218 -298 272 -256 653 -333 1012 -203
218 79 422 262 529 476 l36 72 -44 73 c-282 465 -867 762 -1597 813 l-96 7
-25 -43z m212 -169 c11 -11 20 -33 20 -50 0 -17 -9 -39 -20 -50 -11 -11 -33
-20 -50 -20 -17 0 -39 9 -50 20 -11 11 -20 33 -20 50 0 17 9 39 20 50 11 11
33 20 50 20 17 0 39 -9 50 -20z m820 -260 c11 -11 20 -33 20 -50 0 -17 -9 -39
-20 -50 -11 -11 -33 -20 -50 -20 -17 0 -39 9 -50 20 -11 11 -20 33 -20 50 0
17 9 39 20 50 11 11 33 20 50 20 17 0 39 -9 50 -20z m-820 -310 c11 -11 20
-33 20 -50 0 -17 -9 -39 -20 -50 -11 -11 -33 -20 -50 -20 -17 0 -39 9 -50 20
-11 11 -20 33 -20 50 0 17 9 39 20 50 11 11 33 20 50 20 17 0 39 -9 50 -20z
m330 -70 c11 -11 20 -33 20 -50 0 -17 -9 -39 -20 -50 -11 -11 -33 -20 -50 -20
-17 0 -39 9 -50 20 -11 11 -20 33 -20 50 0 17 9 39 20 50 11 11 33 20 50 20
17 0 39 -9 50 -20z m974 -62 c24 -34 20 -73 -10 -97 -15 -12 -34 -21 -44 -21
-10 0 -29 9 -44 21 -30 24 -34 63 -10 97 21 31 87 31 108 0z m-620 -100 c24
-34 20 -73 -10 -97 -15 -12 -34 -21 -44 -21 -10 0 -29 9 -44 21 -30 24 -34 63
-10 97 21 31 87 31 108 0z m420 -119 c30 -24 34 -63 10 -97 -11 -16 -25 -22
-54 -22 -44 0 -70 26 -70 71 0 30 40 69 70 69 10 0 29 -9 44 -21z m-774 -59
c11 -11 20 -33 20 -50 0 -17 -9 -39 -20 -50 -11 -11 -33 -20 -50 -20 -17 0
-39 9 -50 20 -11 11 -20 33 -20 50 0 17 9 39 20 50 11 11 33 20 50 20 17 0 39
-9 50 -20z m490 -70 c11 -11 20 -33 20 -50 0 -17 -9 -39 -20 -50 -11 -11 -33
-20 -50 -20 -17 0 -39 9 -50 20 -11 11 -20 33 -20 50 0 17 9 39 20 50 11 11
33 20 50 20 17 0 39 -9 50 -20z"/>
</g>
</svg>
