<svg width="512.000000pt" height="512.000000pt" viewBox="0 0 512.000000 512.000000" fill="currentColor" xmlns="http://www.w3.org/2000/svg">
  <g transform="translate(0.000000,512.000000) scale(0.100000,-0.100000)" stroke="currentColor" stroke-width="200">
    <path d="M2389 4680 c-448 -76 -800 -424 -880 -870 -18 -101 -15 -296 6 -394 37 -176 114 -334 231 -477 152 -186 415 -332 660 -368 58 -8 58 -9 -37 -10 -300 -4 -579 -68 -847 -196 -633 -303 -1061 -948 -1089 -1642 -6 -151 -6 -151 21 -197 16 -28 43 -55 70 -71 l43 -25 1989 0 c1941 0 1990 1 2031 20 29 13 53 34 74 67 l31 48 -6 155 c-16 460 -209 904 -541 1249 -363 376 -855 585 -1394 592 -95 1 -95 2 -37 10 161 24 352 103 481 200 190 143 324 337 389 563 174 601 -218 1231 -834 1342 -80 14 -286 17 -361 4z m301 -210 c326 -52 599 -293 690 -610 31 -107 38 -289 15 -401 -51 -252 -219 -474 -446 -588 -145 -72 -233 -93 -389 -93 -147 0 -239 20 -367 81 -454 218 -622 779 -361 1210 178 294 521 454 858 401z m205 -2131 c732 -63 1338 -569 1525 -1274 29 -108 60 -308 60 -386 l0 -39 -1921 0 -1922 0 7 96 c46 618 401 1150 953 1428 183 92 408 157 609 175 142 12 548 13 689 0z" style="stroke-width:20"/>
  </g>
</svg>
