<?xml version="1.0" standalone="no"?>
<!DOCTYPE svg PUBLIC "-//W3C//DTD SVG 20010904//EN"
 "http://www.w3.org/TR/2001/REC-SVG-20010904/DTD/svg10.dtd">
<svg version="1.0" xmlns="http://www.w3.org/2000/svg"
 width="512.000000pt" height="512.000000pt" viewBox="0 0 512.000000 512.000000"
 preserveAspectRatio="xMidYMid meet">

<g transform="translate(0.000000,512.000000) scale(0.100000,-0.100000)"
fill="currentColor" stroke="currentColor">
<path d="M456 4989 l-26 -20 0 -2409 0 -2409 26 -20 27 -21 2077 0 2077 0 27
21 26 20 0 2016 0 2015 -78 82 c-43 44 -174 182 -292 306 -118 124 -260 273
-317 333 l-103 107 -1709 0 -1708 0 -27 -21z m3354 -493 l0 -375 22 -15 c19
-14 71 -16 369 -16 l346 0 6 -1427 c4 -784 7 -1648 7 -1920 l0 -493 -2000 0
-2000 0 0 2310 0 2310 1625 0 1625 0 0 -374z m406 -11 c115 -121 218 -230 228
-243 l19 -22 -261 0 -262 0 0 277 0 278 33 -35 c19 -19 128 -134 243 -255z"/>
<path d="M1497 4403 c-28 -7 -47 -57 -47 -121 l0 -59 -47 -7 c-63 -8 -160 -55
-200 -97 -102 -108 -100 -288 5 -380 54 -47 138 -81 316 -128 177 -46 229 -70
264 -121 19 -28 23 -45 20 -86 -6 -67 -35 -106 -106 -141 -51 -25 -67 -28
-162 -28 -99 0 -109 2 -173 33 -70 35 -109 75 -128 133 -17 50 -38 69 -75 69
-60 0 -84 -48 -60 -118 22 -62 71 -128 124 -167 47 -35 153 -75 197 -75 21 0
23 -5 27 -74 4 -84 23 -116 68 -116 47 0 70 37 70 112 l0 65 63 13 c92 18 159
54 215 115 140 153 99 367 -89 458 -29 15 -131 47 -226 71 -249 65 -283 87
-283 185 0 101 87 156 246 156 81 0 97 -3 149 -30 51 -26 63 -38 90 -90 39
-74 70 -93 115 -70 39 20 47 54 24 113 -36 94 -144 174 -267 197 l-37 7 0 68
c0 89 -33 128 -93 113z"/>
<path d="M2320 4170 c-25 -25 -26 -72 -2 -93 17 -15 65 -17 485 -17 l466 0 15
22 c22 32 20 61 -7 86 -23 22 -25 22 -480 22 -444 0 -458 -1 -477 -20z"/>
<path d="M2326 3659 c-17 -13 -26 -30 -26 -49 0 -19 9 -36 26 -49 27 -21 32
-21 869 -21 837 0 842 0 869 21 35 28 35 70 0 98 -27 21 -32 21 -869 21 -837
0 -842 0 -869 -21z"/>
<path d="M2326 3149 c-17 -13 -26 -30 -26 -47 1 -68 17 -72 339 -72 268 0 282
1 301 20 20 20 26 65 12 86 -20 30 -55 34 -325 34 -262 0 -275 -1 -301 -21z"/>
<path d="M3207 3150 c-27 -21 -36 -62 -19 -86 21 -32 53 -34 450 -34 389 0
400 1 426 21 31 24 34 57 7 90 l-19 24 -409 3 c-403 3 -410 2 -436 -18z"/>
<path d="M1070 2583 c-44 -16 -55 -91 -18 -117 20 -14 179 -16 1501 -16 1493
0 1507 0 1529 34 17 24 8 65 -18 85 l-27 21 -1476 -1 c-812 0 -1483 -3 -1491
-6z"/>
<path d="M1070 2003 c-44 -16 -55 -91 -18 -117 20 -14 85 -16 506 -16 482 0
513 2 534 34 17 24 8 65 -18 85 -26 21 -36 21 -508 20 -264 0 -488 -3 -496 -6z"/>
<path d="M2365 1985 c-14 -13 -25 -33 -25 -45 0 -11 11 -32 25 -45 l24 -25
821 0 c825 0 850 1 872 34 17 24 8 65 -18 85 -27 21 -32 21 -851 21 l-824 0
-24 -25z"/>
<path d="M1049 1412 c-27 -23 -30 -75 -5 -100 15 -16 88 -17 970 -20 l953 -2
26 21 c36 28 36 70 1 98 -27 21 -31 21 -974 21 -906 0 -949 -1 -971 -18z"/>
<path d="M3323 1420 c-44 -18 -43 -98 2 -118 18 -9 128 -12 369 -12 332 0 344
1 370 21 17 13 26 30 26 49 0 19 -9 36 -26 49 -26 20 -37 21 -373 20 -190 0
-356 -4 -368 -9z"/>
<path d="M1052 834 c-15 -10 -22 -25 -22 -47 1 -77 2 -77 453 -77 384 0 395 1
421 21 32 25 35 70 6 99 -19 19 -33 20 -428 20 -353 0 -411 -2 -430 -16z"/>
<path d="M2195 825 c-30 -29 -32 -55 -6 -86 l19 -24 915 -3 c914 -2 914 -2
940 19 34 26 36 70 5 99 -22 20 -30 20 -935 20 l-914 0 -24 -25z"/>
</g>
</svg>
