<?xml version="1.0" standalone="no"?>
<!DOCTYPE svg PUBLIC "-//W3C//DTD SVG 20010904//EN"
 "http://www.w3.org/TR/2001/REC-SVG-20010904/DTD/svg10.dtd">
<svg version="1.0" xmlns="http://www.w3.org/2000/svg"
 width="512.000000pt" height="512.000000pt" viewBox="0 0 512.000000 512.000000"
 preserveAspectRatio="xMidYMid meet">

<g transform="translate(0.000000,512.000000) scale(0.100000,-0.100000)"
fill="#000000" stroke="none">
<path d="M811 3025 c-36 -8 -88 -26 -117 -40 -62 -30 -138 -109 -165 -171 -63
-142 -63 -366 0 -508 27 -62 103 -141 165 -171 147 -72 385 -72 533 0 145 72
224 247 210 469 -14 220 -104 352 -278 408 -85 27 -259 33 -348 13z"/>
<path d="M2411 3025 c-36 -8 -88 -26 -117 -40 -62 -30 -138 -109 -165 -171
-63 -142 -63 -366 0 -508 27 -62 103 -141 165 -171 147 -72 385 -72 533 0 145
72 224 247 210 469 -14 220 -104 352 -278 408 -85 27 -259 33 -348 13z"/>
<path d="M4011 3025 c-36 -8 -88 -26 -117 -40 -62 -30 -138 -109 -165 -171
-63 -142 -63 -366 0 -508 27 -62 103 -141 165 -171 147 -72 385 -72 533 0 145
72 224 247 210 469 -14 220 -104 352 -278 408 -85 27 -259 33 -348 13z"/>
</g>
</svg>
