<?xml version="1.0" standalone="no"?>
<!DOCTYPE svg PUBLIC "-//W3C//DTD SVG 20010904//EN"
 "http://www.w3.org/TR/2001/REC-SVG-20010904/DTD/svg10.dtd">
<svg version="1.0" xmlns="http://www.w3.org/2000/svg"
 width="512.000000pt" height="512.000000pt" viewBox="0 0 512.000000 512.000000"
 preserveAspectRatio="xMidYMid meet">

<g transform="translate(0.000000,512.000000) scale(0.100000,-0.100000)"
fill="currentColor" stroke="currentColor">
<path d="M2380 5110 c-654 -90 -1153 -554 -1291 -1200 -33 -151 -33 -429 0
-580 57 -269 174 -506 343 -694 229 -257 500 -415 838 -487 151 -33 428 -33
580 0 607 129 1052 574 1181 1181 19 87 23 136 23 290 0 205 -17 312 -76 485
-170 500 -598 875 -1123 985 -114 24 -369 35 -475 20z m418 -314 c367 -80 669
-313 836 -644 84 -168 121 -329 121 -532 0 -157 -12 -236 -56 -372 -97 -300
-319 -557 -607 -702 -168 -84 -329 -121 -532 -121 -157 0 -236 12 -372 56
-178 58 -334 154 -474 293 -169 169 -279 371 -330 606 -26 118 -26 362 0 480
51 235 161 437 330 606 179 178 404 296 636 334 41 6 82 13 90 15 37 9 292 -5
358 -19z"/>
<path d="M2495 4496 c-48 -21 -84 -70 -91 -126 -6 -45 -9 -50 -41 -61 -18 -6
-61 -36 -93 -66 -173 -159 -182 -420 -22 -565 59 -52 182 -118 324 -172 123
-47 152 -77 146 -148 -11 -110 -87 -165 -220 -156 -59 4 -87 12 -144 41 -39
21 -85 37 -102 37 -114 0 -185 -117 -133 -218 25 -49 110 -103 213 -135 l66
-21 7 -45 c5 -34 16 -55 44 -82 47 -47 95 -58 156 -34 56 21 87 63 93 127 5
48 5 49 61 76 68 32 166 128 203 198 82 154 74 332 -21 465 -53 74 -121 119
-276 182 -226 91 -256 118 -218 194 23 47 53 63 123 62 42 0 68 -7 110 -29 67
-37 127 -40 176 -9 76 46 91 150 33 223 -11 14 -58 44 -104 66 -80 39 -83 42
-88 80 -7 53 -39 94 -87 114 -48 19 -75 20 -115 2z"/>
<path d="M1269 1875 c-343 -65 -647 -263 -835 -545 l-65 -98 -134 -4 c-145 -3
-163 -9 -209 -72 -20 -27 -21 -40 -24 -532 -2 -490 -2 -505 18 -544 13 -26 34
-47 60 -60 39 -20 55 -20 1727 -20 1893 0 1757 -5 1923 76 l95 47 628 626
c351 350 637 642 648 663 40 78 13 153 -75 212 -288 191 -641 204 -943 35 -67
-37 -121 -86 -369 -332 l-291 -288 -49 3 -49 3 -8 64 c-10 80 -52 190 -101
264 -57 85 -170 186 -259 230 -124 60 -167 67 -469 67 l-268 0 -87 50 c-111
64 -205 103 -329 136 -86 23 -122 27 -279 30 -127 2 -202 -1 -256 -11z m480
-314 c94 -28 207 -80 280 -129 31 -21 65 -42 76 -47 11 -5 164 -12 340 -15
314 -5 321 -6 370 -30 99 -48 190 -165 202 -260 l6 -39 -519 -3 c-498 -3 -520
-4 -553 -23 -100 -59 -106 -189 -12 -252 l34 -23 774 0 c550 0 781 3 796 11
12 6 159 147 327 314 319 316 351 341 480 386 78 26 234 31 319 10 l53 -14
-538 -539 c-479 -479 -546 -542 -604 -571 l-65 -32 -1607 -3 -1608 -2 0 315 0
315 104 0 c132 0 152 12 216 128 63 114 122 192 203 268 125 118 279 202 438
239 41 9 79 19 84 21 6 2 82 2 170 0 127 -3 175 -8 234 -25z"/>
</g>
</svg>
