<?xml version="1.0" standalone="no"?>
<!DOCTYPE svg PUBLIC "-//W3C//DTD SVG 20010904//EN"
 "http://www.w3.org/TR/2001/REC-SVG-20010904/DTD/svg10.dtd">
<svg version="1.0" xmlns="http://www.w3.org/2000/svg"
 width="512.000000pt" height="512.000000pt" viewBox="0 0 512.000000 512.000000"
 preserveAspectRatio="xMidYMid meet">

<g transform="translate(0.000000,512.000000) scale(0.100000,-0.100000)"
fill="currentColor" >
<path d="M2274 5110 c-1008 -106 -1832 -813 -2079 -1784 -54 -213 -69 -342
-69 -586 0 -395 68 -694 239 -1045 342 -703 1009 -1186 1808 -1311 223 -36
719 -16 765 29 8 9 15 26 15 40 0 42 -126 498 -143 520 -16 19 -20 20 -161 7
-307 -26 -606 28 -897 162 -471 217 -840 663 -966 1166 -14 53 -30 133 -37
177 -17 103 -17 395 0 505 121 784 712 1378 1496 1501 126 20 420 17 545 -5
360 -63 672 -221 929 -470 169 -164 280 -317 376 -518 187 -392 223 -817 104
-1240 -20 -72 -20 -79 -6 -102 11 -16 35 -30 69 -39 29 -9 139 -39 243 -67
105 -29 197 -54 207 -57 39 -12 68 50 109 239 41 189 53 299 53 503 1 283 -30
480 -114 736 -120 365 -316 686 -581 950 -368 367 -829 599 -1340 675 -123 18
-450 26 -565 14z"/>
<path d="M2425 3977 c-42 -19 -93 -80 -100 -119 -3 -18 -6 -57 -8 -87 l-2 -55
-78 -39 c-138 -69 -249 -195 -298 -337 -27 -79 -37 -231 -19 -314 6 -31 30
-94 53 -139 91 -183 276 -309 476 -323 129 -9 199 -46 252 -131 11 -18 29 -35
39 -38 11 -4 53 5 94 19 41 14 95 26 121 26 46 0 83 13 97 34 28 42 -38 173
-136 271 -112 111 -233 165 -404 179 -88 7 -137 31 -185 87 -47 55 -63 121
-46 191 9 41 23 63 64 104 65 65 131 85 221 65 92 -21 146 -80 159 -176 11
-82 24 -112 65 -149 119 -107 299 -19 300 146 1 220 -167 452 -372 518 l-38
12 0 61 c-1 122 -64 198 -168 204 -34 2 -69 -2 -87 -10z"/>
<path d="M2052 2480 c-132 -30 -178 -172 -113 -357 53 -153 160 -270 308 -335
l73 -32 0 -63 c0 -121 69 -197 180 -198 47 0 64 5 99 29 23 16 44 40 47 52 4
14 -12 90 -36 181 -24 87 -46 194 -50 237 -8 91 -17 101 -89 112 -128 18 -186
76 -201 201 -10 75 -38 123 -90 151 -44 24 -86 31 -128 22z"/>
<path d="M2902 2179 c-53 -27 -93 -84 -99 -141 -4 -34 40 -209 202 -812 113
-423 213 -786 221 -805 29 -69 99 -121 164 -121 60 0 96 23 217 144 l123 121
267 -267 c273 -272 306 -298 375 -298 67 1 109 34 355 281 244 246 273 283
273 349 0 67 -28 102 -298 373 l-267 267 117 118 c145 145 167 191 135 280
-15 39 -62 90 -96 104 -60 23 -1550 419 -1596 424 -39 4 -60 0 -93 -17z"/>
</g>
</svg>
