<svg xmlns="http://www.w3.org/2000/svg" viewBox="0 0 50 50" width="50px" height="50px">
  <path d="M25 0.046875C22.924964 0.046875 20.850972 0.83457408 19.273438 2.4121094L2.4121094 19.271484C-0.7429612 22.426555 -0.7429612 27.571493 2.4121094 30.726562L19.273438 47.587891C22.42773 50.742184 27.57227 50.742184 30.726562 47.587891L47.587891 30.728516C50.742961 27.573445 50.742961 22.428507 47.587891 19.273438L30.728516 2.4121094C29.15098 0.83457408 27.075036 0.046875 25 0.046875zM25 2.0332031C26.558964 2.0332031 28.118988 2.6307072 29.314453 3.8261719L38.486328 13L37.070312 13C35.479355 13 33.953288 13.631896 32.828125 14.755859A1.0001 1.0001 0 0 0 32.828125 14.757812L26.060547 21.525391C25.466839 22.119099 24.532404 22.119686 23.9375 21.525391L17.169922 14.757812C16.046276 13.632967 14.520644 13 12.929688 13L11.511719 13L20.6875 3.8261719C21.882965 2.6307072 23.441036 2.0332031 25 2.0332031zM9.5117188 15L12.929688 15C13.99073 15 15.007506 15.420769 15.755859 16.169922A1.0001 1.0001 0 0 0 15.755859 16.171875L22.523438 22.939453C23.882532 24.297158 26.116318 24.297745 27.474609 22.939453L34.242188 16.171875C34.993023 15.421792 36.00927 15 37.070312 15L40.486328 15L46.173828 20.6875C48.564758 23.078429 48.564758 26.923524 46.173828 29.314453L40.488281 35L37.070312 35C36.00927 35 34.993023 34.578161 34.242188 33.828125L27.474609 27.060547C26.795464 26.381401 25.897789 26.042986 25 26.042969C24.102211 26.042952 23.202984 26.381695 22.523438 27.060547L15.755859 33.828125A1.0001 1.0001 0 0 0 15.755859 33.830078C15.007506 34.579184 13.99073 35 12.929688 35L9.5136719 35L3.8261719 29.3125C1.4352424 26.921571 1.4352424 23.076476 3.8261719 20.685547L9.5117188 15zM25 28.029297C25.382185 28.02937 25.763693 28.177755 26.060547 28.474609L32.828125 35.242188A1.0001 1.0001 0 0 0 32.828125 35.244141C33.953288 36.368057 35.479355 37 37.070312 37L38.488281 37L29.3125 46.173828C26.922793 48.563535 23.077207 48.563535 20.6875 46.173828L11.513672 37L12.929688 37C14.520644 37 16.046276 36.367033 17.169922 35.242188L23.9375 28.474609C24.234952 28.177462 24.617815 28.029224 25 28.029297z"  stroke="currentColor" stroke-width="2"></path>
</svg>
