<?xml version="1.0" standalone="no"?>
<!DOCTYPE svg PUBLIC "-//W3C//DTD SVG 20010904//EN"
 "http://www.w3.org/TR/2001/REC-SVG-20010904/DTD/svg10.dtd">
<svg version="1.0" xmlns="http://www.w3.org/2000/svg"
 width="512.000000pt" height="512.000000pt" viewBox="0 0 512.000000 512.000000"
 preserveAspectRatio="xMidYMid meet">

<g transform="translate(0.000000,512.000000) scale(0.100000,-0.100000)"
fill="#000000" stroke="none">
<path d="M1337 5109 c-130 -31 -231 -140 -257 -278 -14 -74 -14 -4468 0 -4542
22 -115 94 -208 198 -257 l57 -27 1225 0 1225 0 57 27 c103 48 176 144 198
257 14 74 14 4468 0 4542 -22 113 -95 209 -198 257 l-57 27 -1205 2 c-683 0
-1221 -3 -1243 -8z m1623 -259 c8 -14 8 -26 0 -40 -10 -19 -21 -20 -400 -20
-375 0 -390 1 -400 19 -13 25 -13 27 6 45 13 14 64 16 399 16 374 0 385 -1
395 -20z m850 -2245 l0 -1965 -1250 0 -1250 0 0 1965 0 1965 1250 0 1250 0 0
-1965z m-1193 -2096 c64 -24 113 -93 113 -159 0 -82 -50 -147 -130 -171 -99
-30 -210 58 -210 165 0 119 119 206 227 165z"/>
<path d="M2426 3510 c-77 -12 -201 -47 -235 -65 l-26 -14 43 -1 42 0 0 -105
c0 -62 4 -105 10 -105 5 0 27 7 47 15 254 99 559 34 761 -164 221 -215 278
-557 141 -835 -33 -66 -84 -139 -123 -175 l-26 -25 -45 44 -45 44 0 -182 0
-182 182 0 182 0 -51 53 -51 52 39 45 c100 112 184 267 220 405 26 101 35 285
20 385 -60 383 -348 698 -723 790 -96 24 -275 33 -362 20z"/>
<path d="M1844 3301 l49 -50 -54 -59 c-112 -125 -203 -318 -230 -492 -18 -114
-6 -296 25 -403 50 -168 127 -299 251 -422 128 -129 286 -216 463 -255 99 -22
298 -27 384 -9 67 14 174 46 196 59 14 8 12 9 -10 10 l-28 0 0 111 c0 127 8
121 -100 81 -192 -71 -437 -41 -619 75 -289 185 -407 543 -287 873 23 61 60
124 119 198 l50 63 48 -47 49 -48 0 182 0 182 -177 0 -177 0 48 -49z"/>
</g>
</svg>
