<?xml version="1.0" standalone="no"?>
<!DOCTYPE svg PUBLIC "-//W3C//DTD SVG 20010904//EN"
 "http://www.w3.org/TR/2001/REC-SVG-20010904/DTD/svg10.dtd">
<svg version="1.0" xmlns="http://www.w3.org/2000/svg"
 width="512.000000pt" height="512.000000pt" viewBox="0 0 512.000000 512.000000"
 preserveAspectRatio="xMidYMid meet">

<g transform="translate(0.000000,512.000000) scale(0.100000,-0.100000)"
fill="#000000" stroke="none">
<path d="M3571 5103 c-27 -9 -67 -38 -101 -72 -144 -143 -2188 -2308 -2212
-2343 -49 -72 -49 -184 0 -256 15 -22 527 -566 1137 -1211 857 -904 1120
-1176 1154 -1193 129 -62 274 -8 331 124 28 66 24 149 -12 208 -12 22 -482
524 -1043 1116 -561 593 -1020 1080 -1020 1084 0 4 459 491 1020 1084 561 592
1030 1094 1043 1116 67 113 19 270 -101 332 -54 27 -140 32 -196 11z"/>
</g>
</svg>
